<?xml version="1.0" encoding="UTF-8" standalone="no"?>
<!-- Created with Inkscape (http://www.inkscape.org/) -->

<svg
   width="269.04742mm"
   height="340.88867mm"
   viewBox="0 0 269.04742 340.88867"
   version="1.1"
   id="svg5"
   sodipodi:docname="full_image.svg"
   inkscape:version="1.1.2 (0a00cf5339, 2022-02-04, custom)"
   inkscape:export-filename="/home/user/Hats/arthatsfull.png"
   inkscape:export-xdpi="232.22856"
   inkscape:export-ydpi="232.22856"
   xmlns:inkscape="http://www.inkscape.org/namespaces/inkscape"
   xmlns:sodipodi="http://sodipodi.sourceforge.net/DTD/sodipodi-0.dtd"
   xmlns:xlink="http://www.w3.org/1999/xlink"
   xmlns="http://www.w3.org/2000/svg"
   xmlns:svg="http://www.w3.org/2000/svg">
  <sodipodi:namedview
     id="namedview7"
     pagecolor="#ffffff"
     bordercolor="#666666"
     borderopacity="1.0"
     inkscape:pageshadow="2"
     inkscape:pageopacity="0.0"
     inkscape:pagecheckerboard="0"
     inkscape:document-units="mm"
     showgrid="false"
     inkscape:zoom="0.68577924"
     inkscape:cx="581.81989"
     inkscape:cy="827.52578"
     inkscape:window-width="1920"
     inkscape:window-height="1030"
     inkscape:window-x="0"
     inkscape:window-y="0"
     inkscape:window-maximized="1"
     inkscape:current-layer="layer1"
     showguides="false" />
  <defs
     id="defs2">
    <linearGradient
       inkscape:collect="always"
       id="linearGradient138188">
      <stop
         style="stop-color:#000000;stop-opacity:1;"
         offset="0"
         id="stop138184" />
      <stop
         style="stop-color:#000000;stop-opacity:0;"
         offset="1"
         id="stop138186" />
    </linearGradient>
    <rect
       x="43.12154"
       y="139.65567"
       width="455.87143"
       height="553.46753"
       id="rect96781" />
    <linearGradient
       inkscape:collect="always"
       id="linearGradient22821">
      <stop
         style="stop-color:#b1b1b1;stop-opacity:1;"
         offset="0"
         id="stop22817" />
      <stop
         style="stop-color:#b1b1b1;stop-opacity:0;"
         offset="1"
         id="stop22819" />
    </linearGradient>
    <mask
       maskUnits="userSpaceOnUse"
       id="mask24189">
      <path
         style="fill:#836c6c;fill-opacity:1;stroke:none;stroke-width:1.00157;stroke-linecap:round;stroke-linejoin:round;stroke-miterlimit:4;stroke-dasharray:none"
         id="path24191"
         sodipodi:type="arc"
         sodipodi:cx="107.51446"
         sodipodi:cy="90.414116"
         sodipodi:rx="3.5181322"
         sodipodi:ry="3.5181322"
         sodipodi:start="1.5825372"
         sodipodi:end="1.5601009"
         sodipodi:open="true"
         sodipodi:arc-type="arc"
         d="m 107.47315,93.932006 a 3.5181322,3.5181322 0 0 1 -3.47676,-3.539462 3.5181322,3.5181322 0 0 1 3.51991,-3.49656 3.5181322,3.5181322 0 0 1 3.51624,3.500238 3.5181322,3.5181322 0 0 1 -3.48046,3.535825" />
    </mask>
    <mask
       maskUnits="userSpaceOnUse"
       id="mask25792">
      <path
         style="fill:#f1f1f1;fill-opacity:1;stroke:none;stroke-width:1.00157;stroke-linecap:round;stroke-linejoin:round;stroke-miterlimit:4;stroke-dasharray:none"
         id="path25794"
         sodipodi:type="arc"
         sodipodi:cx="110.02034"
         sodipodi:cy="92.765137"
         sodipodi:rx="5.5348873"
         sodipodi:ry="4.5845466"
         sodipodi:start="1.5825372"
         sodipodi:end="1.5601009"
         sodipodi:open="true"
         sodipodi:arc-type="arc"
         d="m 109.95536,97.349367 a 5.5348873,4.5845466 0 0 1 -5.4698,-4.612342 5.5348873,4.5845466 0 0 1 5.53767,-4.556434 5.5348873,4.5845466 0 0 1 5.53193,4.561227 5.5348873,4.5845466 0 0 1 -5.47562,4.607603" />
    </mask>
    <mask
       maskUnits="userSpaceOnUse"
       id="mask26670">
      <path
         style="fill:#decbc3;fill-opacity:1;stroke:none;stroke-width:0.258115px;stroke-linecap:butt;stroke-linejoin:miter;stroke-opacity:1"
         d="m 76.354622,94.152241 c 0.632095,9.904999 1.527086,22.201409 9.392084,28.255359 6.541141,5.03493 17.569504,5.66906 24.715764,1.53771 9.59658,-5.5479 12.98152,-18.85392 14.77281,-29.793069 1.0808,-6.600333 1.03373,-11.365772 -2.71445,-16.905057 -2.43116,-3.592915 -7.25311,-7.882292 -11.31531,-9.404821 -7.01871,-2.630644 -14.628026,-2.37698 -21.445608,0.376856 -3.269287,1.320568 -8.077243,7.511378 -9.840201,10.564916 -2.587207,4.481171 -4.017418,8.280067 -3.565089,15.368106 z"
         id="path26672"
         sodipodi:nodetypes="saassssss" />
    </mask>
    <clipPath
       clipPathUnits="userSpaceOnUse"
       id="clipPath18923">
      <path
         style="fill:#f0f0f0;fill-opacity:1;stroke:none;stroke-width:0.12895px;stroke-linecap:butt;stroke-linejoin:miter;stroke-opacity:1"
         d="m 92.754159,130.79099 c 2.023279,2.98824 5.75038,4.68773 9.222971,5.66975 5.44957,1.54109 11.54028,1.54109 16.98985,0 3.47259,-0.98202 7.2226,-2.66612 9.22296,-5.66975 11.00627,-16.52641 15.63989,-40.059364 9.22248,-58.849715 -2.2725,-6.65393 -8.79772,-11.889468 -15.33116,-14.48816 -7.19148,-2.860432 -16.2596,-3.387374 -23.21842,0 -7.468605,3.635523 -13.341278,11.558603 -15.372281,19.612927 -4.443359,17.620988 -0.924962,38.677158 9.2636,53.724948 z"
         id="path18925"
         sodipodi:nodetypes="aaaaaaaaa" />
    </clipPath>
    <radialGradient
       inkscape:collect="always"
       xlink:href="#linearGradient22821"
       id="radialGradient22823"
       cx="106.72237"
       cy="106.98993"
       fx="106.72237"
       fy="106.98993"
       r="5.4059162"
       gradientTransform="matrix(0.46138526,0.12521126,-0.21779519,1.045879,170.05657,-27.310673)"
       gradientUnits="userSpaceOnUse" />
    <radialGradient
       inkscape:collect="always"
       xlink:href="#linearGradient138188"
       id="radialGradient138192"
       cx="199.29234"
       cy="102.23977"
       fx="199.29234"
       fy="102.23977"
       r="6.0397749"
       gradientTransform="matrix(1.1203119,-2.8888389e-6,7.2228023e-7,0.28010532,-25.373839,77.331747)"
       gradientUnits="userSpaceOnUse" />
    <rect
       x="43.12154"
       y="139.65567"
       width="455.87143"
       height="553.46753"
       id="rect169273" />
  </defs>
  <g
     inkscape:label="Layer 1"
     inkscape:groupmode="layer"
     id="layer1"
     transform="translate(15.024459,39.199673)">
    <rect
       style="fill:#424242;fill-opacity:1;stroke:none;stroke-width:0.253334;stroke-linecap:round;stroke-linejoin:round;stroke-miterlimit:4;stroke-dasharray:none;stroke-opacity:1;paint-order:normal"
       id="rect93157"
       width="269.04742"
       height="315.85992"
       x="-15.024459"
       y="-39.199673" />
    <text
       xml:space="preserve"
       transform="matrix(0.25556787,0.0684792,-0.0684792,0.25556787,-1.8569058,47.235696)"
       id="text96779"
       style="font-style:normal;font-variant:normal;font-weight:normal;font-stretch:normal;font-size:96px;line-height:1.25;font-family:Roboto;-inkscape-font-specification:Roboto;white-space:pre;shape-inside:url(#rect96781);fill:#000000;fill-opacity:1;stroke:none"
       x="167.29688"
       y="0"><tspan
         x="99.072266"
         y="227.93022"
         id="tspan1176"><tspan
           style="font-weight:900;-inkscape-font-specification:'Roboto Heavy';text-align:center;text-anchor:middle;fill:#ffffff"
           id="tspan1174">Hats       </tspan></tspan></text>
    <path
       style="fill:#595959;fill-opacity:1;stroke:none;stroke-width:0.281457px;stroke-linecap:butt;stroke-linejoin:miter;stroke-opacity:1"
       d="M -18.51119,273.25328 H 279.6395 v 15.41097 H -19.885987 Z"
       id="path92005" />
    <path
       style="fill:#3f3f3f;fill-opacity:1;stroke:none;stroke-width:0.281317px;stroke-linecap:butt;stroke-linejoin:miter;stroke-opacity:1"
       d="M -32.826759,286.27804 H 265.029 v 15.41097 H -34.200196 Z"
       id="path92871" />
    <ellipse
       style="fill:#c6afaf;fill-opacity:1;stroke:none;stroke-width:0.510418;stroke-linecap:round;stroke-linejoin:round;stroke-miterlimit:4;stroke-dasharray:none;stroke-opacity:1;paint-order:normal"
       id="ellipse127090"
       cx="115.73069"
       cy="63.05426"
       rx="21.852627"
       ry="8.4872913"
       transform="rotate(15)" />
    <ellipse
       style="fill:#ecd1d1;fill-opacity:1;stroke:none;stroke-width:0.358533;stroke-linecap:round;stroke-linejoin:round;stroke-miterlimit:4;stroke-dasharray:none;stroke-opacity:1;paint-order:normal"
       id="ellipse127092"
       cx="115.73069"
       cy="62.404251"
       rx="15.349924"
       ry="5.9617214"
       transform="rotate(15)" />
    <rect
       style="fill:#ecd1d1;fill-opacity:1;stroke:none;stroke-width:0.441271;stroke-linecap:round;stroke-linejoin:round;stroke-miterlimit:4;stroke-dasharray:none;stroke-opacity:1;paint-order:normal"
       id="rect127094"
       width="30.699924"
       height="11.923443"
       x="100.38054"
       y="50.480804"
       transform="rotate(15)" />
    <rect
       style="fill:#ecd1d1;fill-opacity:1;stroke:none;stroke-width:0.293697;stroke-linecap:round;stroke-linejoin:round;stroke-miterlimit:4;stroke-dasharray:none;stroke-opacity:1;paint-order:normal"
       id="rect127096"
       width="30.699924"
       height="5.2818942"
       x="100.38054"
       y="28.036261"
       transform="rotate(15)" />
    <ellipse
       style="fill:#b5a0a0;fill-opacity:1;stroke:none;stroke-width:0.254419;stroke-linecap:round;stroke-linejoin:round;stroke-miterlimit:4;stroke-dasharray:none;stroke-opacity:1;paint-order:normal"
       id="ellipse127098"
       cx="115.73069"
       cy="28.036245"
       rx="15.349924"
       ry="3.0020106"
       transform="rotate(15)" />
    <rect
       style="fill:#ecd1d1;fill-opacity:1;stroke:none;stroke-width:0.441271;stroke-linecap:round;stroke-linejoin:round;stroke-miterlimit:4;stroke-dasharray:none;stroke-opacity:1;paint-order:normal"
       id="rect127100"
       width="30.699924"
       height="11.923443"
       x="100.38054"
       y="32.595638"
       transform="rotate(15)" />
    <rect
       style="fill:#ecd1d1;fill-opacity:1;stroke:none;stroke-width:0.441271;stroke-linecap:round;stroke-linejoin:round;stroke-miterlimit:4;stroke-dasharray:none;stroke-opacity:1;paint-order:normal"
       id="rect127102"
       width="30.699924"
       height="11.923443"
       x="100.38054"
       y="44.519081"
       transform="rotate(15)" />
    <rect
       style="fill:#ecd1d1;fill-opacity:1;stroke:none;stroke-width:0.441271;stroke-linecap:round;stroke-linejoin:round;stroke-miterlimit:4;stroke-dasharray:none;stroke-opacity:1;paint-order:normal"
       id="rect127104"
       width="30.699924"
       height="11.923443"
       x="100.38054"
       y="38.557365"
       transform="rotate(15)" />
    <ellipse
       style="fill:#625757;fill-opacity:1;stroke:none;stroke-width:0.510418;stroke-linecap:round;stroke-linejoin:round;stroke-miterlimit:4;stroke-dasharray:none;stroke-opacity:1;paint-order:normal"
       id="ellipse129274"
       cx="-55.838997"
       cy="-124.28055"
       rx="21.852627"
       ry="8.4872913"
       transform="rotate(-165)" />
    <ellipse
       style="fill:#3a3333;fill-opacity:1;stroke:none;stroke-width:0.358533;stroke-linecap:round;stroke-linejoin:round;stroke-miterlimit:4;stroke-dasharray:none;stroke-opacity:1;paint-order:normal"
       id="ellipse129276"
       cx="-55.838997"
       cy="-124.93057"
       rx="15.349924"
       ry="5.9617214"
       transform="rotate(-165)" />
    <rect
       style="fill:#3a3333;fill-opacity:1;stroke:none;stroke-width:0.441271;stroke-linecap:round;stroke-linejoin:round;stroke-miterlimit:4;stroke-dasharray:none;stroke-opacity:1;paint-order:normal"
       id="rect129278"
       width="30.699924"
       height="11.923443"
       x="-71.189148"
       y="-136.85402"
       transform="rotate(-165)" />
    <rect
       style="fill:#3a3333;fill-opacity:1;stroke:none;stroke-width:0.31313;stroke-linecap:round;stroke-linejoin:round;stroke-miterlimit:4;stroke-dasharray:none;stroke-opacity:1;paint-order:normal"
       id="rect129280"
       width="30.699924"
       height="6.0040002"
       x="-71.189148"
       y="-142.13591"
       transform="rotate(-165)" />
    <ellipse
       style="fill:#6a5e5e;fill-opacity:1;stroke:none;stroke-width:0.254419;stroke-linecap:round;stroke-linejoin:round;stroke-miterlimit:4;stroke-dasharray:none;stroke-opacity:1;paint-order:normal"
       id="ellipse129282"
       cx="-55.838997"
       cy="-142.13593"
       rx="15.349924"
       ry="3.0020106"
       transform="rotate(-165)" />
    <path
       style="fill:#cacaca;fill-opacity:1;stroke:none;stroke-width:0.318369px;stroke-linecap:butt;stroke-linejoin:miter;stroke-opacity:1"
       d="m 189.52832,107.14031 c 0.43415,2.73847 3.33178,7.69671 3.14323,10.46718 -0.14527,2.13438 -5.40508,4.23466 -6.70602,5.37319 -0.0885,0.0774 32.05655,-0.40549 29.6297,1.33506 -3.02987,2.17304 -7.18857,-5.13811 -7.47147,-9.76476 -0.27763,-4.54037 -0.24116,-7.63694 3.37102,-14.30255 0.0305,-0.0562 -22.07626,6.45198 -21.96646,6.89188"
       id="path44604"
       sodipodi:nodetypes="csssssc" />
    <path
       style="fill:#d2d2d2;fill-opacity:1;stroke:none;stroke-width:0.318369px;stroke-linecap:butt;stroke-linejoin:miter;stroke-opacity:1"
       d="m 189.27753,106.11281 c 0.43415,2.73847 1.90057,5.34342 2.13005,10.22478 0.10046,2.13696 -4.2678,5.88519 -5.56874,7.02372 -0.0885,0.0774 26.496,1.86142 24.06924,0.12079 -4.62869,-3.32001 -5.05637,-11.72524 0.68245,-22.0703 0.0311,-0.056 -21.4228,4.26113 -21.313,4.70103"
       id="path52396"
       sodipodi:nodetypes="cssssc" />
    <path
       style="fill:#7b6d6d;fill-opacity:1;stroke:none;stroke-width:0.171984px;stroke-linecap:butt;stroke-linejoin:miter;stroke-opacity:1"
       d="m 183.21877,82.728797 c 0.19759,-0.467289 0.53061,-3.6874 0.58326,-4.38376 0.32947,-4.35785 -0.59359,-10.63625 -2.32802,-7.09418 -0.32273,0.65908 -1.22633,2.72143 -1.45587,4.18915 -0.63389,4.05316 -1.66946,13.781587 0.84762,14.25453 0.23051,0.04331 1.35226,4.095731 1.52672,3.942107 1.11892,-0.985278 0.27988,-9.615629 0.82629,-10.907847 z"
       id="path31055"
       sodipodi:nodetypes="sssssss" />
    <path
       style="fill:#f0f0f0;fill-opacity:1;stroke:none;stroke-width:0.0838197px;stroke-linecap:butt;stroke-linejoin:miter;stroke-opacity:1"
       d="m 193.75678,114.638 c 2.7169,1.92098 6.95982,1.39163 9.98225,0 3.20245,-1.47452 5.3942,-5.94953 6.87668,-8.0362 2.95697,-4.12227 3.42109,-6.889077 4.32144,-10.595626 1.5077,-6.206928 3.89944,-12.673347 1.7094,-19.085857 -1.47716,-4.32518 -5.71867,-7.72836 -9.96552,-9.41756 -4.67459,-1.85933 -10.56902,-2.201851 -15.09237,0 -4.85472,2.36315 -9.08805,4.21257 -9.99225,12.74874 -0.9042,8.53617 2.23331,27.367573 12.16037,34.386503 z"
       id="path18346"
       sodipodi:nodetypes="aacasaaza" />
    <ellipse
       style="fill:#e8e8e8;fill-opacity:1;stroke:none;stroke-width:5.96341;stroke-linecap:round;stroke-linejoin:round;stroke-miterlimit:4;stroke-dasharray:none"
       id="circle3683"
       cx="205.6241"
       cy="89.624893"
       rx="6.1714444"
       ry="5.4980354" />
    <ellipse
       style="fill:#ffffff;stroke:none;stroke-width:2.04936;stroke-linecap:round;stroke-linejoin:round;stroke-miterlimit:4;stroke-dasharray:none"
       id="ellipse3685"
       cx="205.36812"
       cy="89.071503"
       rx="5.3636889"
       ry="3.3149421" />
    <circle
       style="fill:#d6d6d6;fill-opacity:1;stroke:none;stroke-width:1.10214;stroke-linecap:round;stroke-linejoin:round;stroke-miterlimit:4;stroke-dasharray:none"
       id="circle3687"
       cx="203.94185"
       cy="89.213158"
       r="2.6253486" />
    <circle
       style="fill:#838383;fill-opacity:1;stroke:none;stroke-width:1.02145;stroke-linecap:round;stroke-linejoin:round;stroke-miterlimit:4;stroke-dasharray:none"
       id="circle4629"
       cx="203.8463"
       cy="89.334007"
       r="1.7365034" />
    <ellipse
       style="fill:#e8e8e8;fill-opacity:1;stroke:none;stroke-width:5.96341;stroke-linecap:round;stroke-linejoin:round;stroke-miterlimit:4;stroke-dasharray:none"
       id="ellipse16729"
       cx="190.11566"
       cy="89.624893"
       rx="6.1714444"
       ry="5.4980354" />
    <ellipse
       style="fill:#ffffff;stroke:none;stroke-width:2.04936;stroke-linecap:round;stroke-linejoin:round;stroke-miterlimit:4;stroke-dasharray:none"
       id="ellipse16731"
       cx="189.8597"
       cy="89.071503"
       rx="5.3636889"
       ry="3.3149421" />
    <circle
       style="fill:#d6d6d6;fill-opacity:1;stroke:none;stroke-width:1.10214;stroke-linecap:round;stroke-linejoin:round;stroke-miterlimit:4;stroke-dasharray:none"
       id="circle16733"
       cx="188.43343"
       cy="89.213158"
       r="2.6253486" />
    <circle
       style="fill:#838383;fill-opacity:1;stroke:none;stroke-width:1.02145;stroke-linecap:round;stroke-linejoin:round;stroke-miterlimit:4;stroke-dasharray:none"
       id="circle16735"
       cx="188.33789"
       cy="89.334007"
       r="1.7365034" />
    <g
       id="g17926"
       transform="matrix(-0.57610875,0,0,0.75743173,242.57211,24.457183)">
      <path
         style="fill:none;stroke:#916f6f;stroke-width:2.03017;stroke-linecap:round;stroke-linejoin:miter;stroke-miterlimit:4;stroke-dasharray:none;stroke-opacity:1"
         d="m 57.810503,80.411769 c 5.063832,0 10.127663,0 15.191495,0"
         id="path17922"
         sodipodi:nodetypes="cc" />
      <path
         style="fill:none;stroke:#664e4e;stroke-width:2.81266;stroke-linecap:round;stroke-linejoin:miter;stroke-miterlimit:4;stroke-dasharray:none;stroke-opacity:1"
         d="m 63.741965,80.411769 c 3.086678,0.317747 6.173355,0.20766 9.260033,0"
         id="path17924"
         sodipodi:nodetypes="cc" />
    </g>
    <g
       id="g16269"
       transform="matrix(0.57610878,0,0,0.75743173,151.04646,24.848767)">
      <path
         style="fill:none;stroke:#916f6f;stroke-width:2.03017;stroke-linecap:round;stroke-linejoin:miter;stroke-miterlimit:4;stroke-dasharray:none;stroke-opacity:1"
         d="m 57.810503,80.411769 c 5.063832,0 10.127663,0 15.191495,0"
         id="path16265"
         sodipodi:nodetypes="cc" />
      <path
         style="fill:none;stroke:#664e4e;stroke-width:2.81266;stroke-linecap:round;stroke-linejoin:miter;stroke-miterlimit:4;stroke-dasharray:none;stroke-opacity:1"
         d="m 59.717611,80.411769 9.956101,0.706578"
         id="path16267"
         sodipodi:nodetypes="cc" />
    </g>
    <path
       style="fill:url(#radialGradient22823);fill-opacity:1;stroke:none;stroke-width:0.0652668px;stroke-linecap:butt;stroke-linejoin:miter;stroke-opacity:1"
       d="m 195.66743,101.05883 c 1.92268,0.29805 3.9615,-0.86428 3.81198,-1.884861 -0.0415,-0.282737 0.74269,-3.585244 0.31765,-3.908677 -0.58015,-0.441406 -1.26766,-6.705726 -1.56598,-5.357825 -0.32366,1.462487 -1.17861,5.10201 -2.53692,6.662897 0,0 -3.20283,3.240756 -0.0267,4.488466 z"
       id="path19812"
       sodipodi:nodetypes="cssscc" />
    <path
       style="fill:#b4b4b4;fill-opacity:1;stroke:none;stroke-width:0.0652668px;stroke-linecap:butt;stroke-linejoin:miter;stroke-opacity:1"
       d="m 195.66743,101.05883 c 1.92268,0.29805 3.19261,-1.24413 3.04308,-2.264698 -0.0426,-0.290674 -1.80883,-0.823482 -2.25249,-1.155852 -1.114,-0.834561 -0.76386,-1.067916 -0.76386,-1.067916 0,0 -3.20283,3.240756 -0.0267,4.488466 z"
       id="path20357"
       sodipodi:nodetypes="csscc" />
    <path
       style="fill:#7b6d6d;fill-opacity:1;stroke:none;stroke-width:0.171984px;stroke-linecap:butt;stroke-linejoin:miter;stroke-opacity:1"
       d="m 213.78922,68.670147 c -1.58749,-0.87637 -0.0774,2.50058 -0.72856,5.95048 0.15599,4.52094 -0.73212,14.16852 1.08685,17.636028 l 1.16164,2.21443 c 0.72744,1.386711 7.98542,-20.83261 -1.51993,-25.800938 z"
       id="path31308"
       sodipodi:nodetypes="ccssc" />
    <path
       style="fill:#877777;fill-opacity:1;stroke:none;stroke-width:0.171984px;stroke-linecap:butt;stroke-linejoin:miter;stroke-opacity:1"
       d="m 211.66296,76.144377 c 5.2084,-5.19916 6.84557,-10.145476 -7.3738,-10.131162 -3.4636,0.0035 -6.90683,-0.848888 -12.7173,0.386732 -15.24482,3.24187 -12.63482,8.44137 -4.67472,10.95043 3.89121,1.22652 9.72087,0.89007 14.09125,1.14803 4.08612,0.24118 9.15325,-0.8354 10.67457,-2.35403 z"
       id="path29779"
       sodipodi:nodetypes="ssssss" />
    <ellipse
       style="fill:#584e4e;fill-opacity:1;stroke:none;stroke-width:0.510418;stroke-linecap:round;stroke-linejoin:round;stroke-miterlimit:4;stroke-dasharray:none;stroke-opacity:1;paint-order:normal"
       id="ellipse38497"
       cx="199.59084"
       cy="73.126236"
       rx="21.852627"
       ry="8.4872913" />
    <ellipse
       style="fill:#837474;fill-opacity:1;stroke:none;stroke-width:0.358533;stroke-linecap:round;stroke-linejoin:round;stroke-miterlimit:4;stroke-dasharray:none;stroke-opacity:1;paint-order:normal"
       id="ellipse38706"
       cx="199.59084"
       cy="72.476227"
       rx="15.349924"
       ry="5.9617214" />
    <rect
       style="fill:#837474;fill-opacity:1;stroke:none;stroke-width:0.441271;stroke-linecap:round;stroke-linejoin:round;stroke-miterlimit:4;stroke-dasharray:none;stroke-opacity:1;paint-order:normal"
       id="rect38396"
       width="30.699924"
       height="11.923443"
       x="184.24068"
       y="60.552773" />
    <rect
       style="fill:#837474;fill-opacity:1;stroke:none;stroke-width:0.293697;stroke-linecap:round;stroke-linejoin:round;stroke-miterlimit:4;stroke-dasharray:none;stroke-opacity:1;paint-order:normal"
       id="rect38768"
       width="30.699924"
       height="5.2818942"
       x="184.24068"
       y="38.108234" />
    <ellipse
       style="fill:#706363;fill-opacity:1;stroke:none;stroke-width:0.254419;stroke-linecap:round;stroke-linejoin:round;stroke-miterlimit:4;stroke-dasharray:none;stroke-opacity:1;paint-order:normal"
       id="ellipse36591"
       cx="199.59084"
       cy="38.108219"
       rx="15.349924"
       ry="3.0020106" />
    <rect
       style="fill:#837474;fill-opacity:1;stroke:none;stroke-width:0.441271;stroke-linecap:round;stroke-linejoin:round;stroke-miterlimit:4;stroke-dasharray:none;stroke-opacity:1;paint-order:normal"
       id="rect38771"
       width="30.699924"
       height="11.923443"
       x="184.24068"
       y="42.66761" />
    <rect
       style="fill:#837474;fill-opacity:1;stroke:none;stroke-width:0.441271;stroke-linecap:round;stroke-linejoin:round;stroke-miterlimit:4;stroke-dasharray:none;stroke-opacity:1;paint-order:normal"
       id="rect38773"
       width="30.699924"
       height="11.923443"
       x="184.24068"
       y="54.591049" />
    <rect
       style="fill:#837474;fill-opacity:1;stroke:none;stroke-width:0.441271;stroke-linecap:round;stroke-linejoin:round;stroke-miterlimit:4;stroke-dasharray:none;stroke-opacity:1;paint-order:normal"
       id="rect38775"
       width="30.699924"
       height="11.923443"
       x="184.24068"
       y="48.629333" />
    <g
       id="g68016"
       transform="translate(93.345238)">
      <path
         style="fill:#f5f5f5;fill-opacity:1;stroke:none;stroke-width:0.264583px;stroke-linecap:butt;stroke-linejoin:miter;stroke-opacity:1"
         d="m 95.40949,122.52987 c -5.406988,0 -11.206394,1.83353 -14.74679,5.36004 -0.938995,0.93532 -1.857459,1.96731 -2.779326,3.10124 -5.482379,6.74356 -7.497702,23.68348 -5.8836,32.22319 0,0 1.611039,10.7011 2.816362,14.90049 1.205323,4.19939 1.601597,9.22005 4.018389,10.29276 2.416792,1.07271 3.174009,0.1595 4.501597,-1.71046 1.327588,-1.86996 0.313836,-5.09825 0.242137,-8.94093 -0.0717,-3.84268 -0.908267,-14.08663 -0.908267,-14.08663 -0.313556,-4.86304 1.475281,-17.77212 2.283822,-19.06646 0.832521,-1.33272 1.373051,-0.78527 1.880771,-0.01 1.300686,1.9861 0.18928,15.29249 0.02404,23.36183 -0.165241,8.06934 -0.821985,28.18878 -0.821985,28.18878 l 20.06044,-2.54766 v -70.0285 c 0,0 -7.175235,-1.72663 -10.68759,-1.03769 z"
         id="path54307"
         sodipodi:nodetypes="sssszzzzssszcccs" />
    </g>
    <path
       style="fill:none;stroke:url(#radialGradient138192);stroke-width:4;stroke-linecap:round;stroke-linejoin:round;stroke-miterlimit:4;stroke-dasharray:none;stroke-opacity:1;paint-order:stroke fill markers"
       d="m 192.94041,108.13776 c 6.33574,1.62587 9.95897,0.0989 10.12025,0"
       id="path137213"
       sodipodi:nodetypes="cc" />
    <path
       style="fill:#4f4f4f;fill-opacity:1;stroke:none;stroke-width:0.264583px;stroke-linecap:butt;stroke-linejoin:miter;stroke-opacity:1"
       d="m 196.19982,274.09424 c -0.28763,-0.59175 -2.19717,-1.27314 -2.81305,-1.50463 -3.48265,-1.30903 -8.24773,-1.33701 -12.40315,-1.2692 -3.5979,6.02725 -10.53853,3.06807 -11.54923,5.4601 0.29784,1.53472 -0.84949,1.32179 2.57412,3.84495 0.61115,0.45041 4.91257,0.30749 5.89756,0.33559 4.35154,0.12424 5.76765,0.16851 9.97873,-0.55352 3.27926,-0.56226 6.23017,0.29578 8.24743,-0.73827 1.65386,-0.84776 0.51419,-4.60579 0.0676,-5.57502 z"
       id="path82208"
       sodipodi:nodetypes="csccssssc" />
    <path
       style="fill:#3a3a3a;fill-opacity:1;stroke:none;stroke-width:0.264583px;stroke-linecap:butt;stroke-linejoin:miter;stroke-opacity:1"
       d="m 196.19982,274.09424 c -0.28763,-0.59175 -0.94526,-0.90091 -1.46245,-0.49421 -4.03524,3.17314 -9.94499,0.46431 -13.75375,-2.27962 -3.5979,6.02725 -10.53853,3.06807 -11.54923,5.4601 0.29784,1.53472 -0.84949,1.32179 2.57412,3.84495 0.61115,0.45041 4.91257,0.30749 5.89756,0.33559 4.35154,0.12424 5.76765,0.16851 9.97873,-0.55352 3.27926,-0.56226 6.23017,0.29578 8.24743,-0.73827 1.65386,-0.84776 0.51419,-4.60579 0.0676,-5.57502 z"
       id="path86868"
       sodipodi:nodetypes="csccssssc" />
    <path
       style="fill:#fafafa;fill-opacity:1;stroke:none;stroke-width:0.264583px;stroke-linecap:butt;stroke-linejoin:miter;stroke-opacity:1"
       d="m 185.24915,124.01277 3.34785,-7.49866 10.84527,7.05342 z"
       id="path53159" />
    <path
       style="fill:#4f4f4f;fill-opacity:1;stroke:none;stroke-width:0.264583px;stroke-linecap:butt;stroke-linejoin:miter;stroke-opacity:1"
       d="m 219.13738,274.09424 c -0.28763,-0.59175 -2.19717,-1.27314 -2.81305,-1.50463 -3.48265,-1.30903 -8.24773,-1.33701 -12.40315,-1.2692 -3.5979,6.02725 -10.53853,3.06807 -11.54923,5.4601 0.29784,1.53472 -0.84949,1.32179 2.57412,3.84495 0.61115,0.45041 4.91257,0.30749 5.89756,0.33559 4.35154,0.12424 5.76765,0.16851 9.97873,-0.55352 3.27926,-0.56226 6.23017,0.29578 8.24743,-0.73827 1.65386,-0.84776 0.51419,-4.60579 0.0676,-5.57502 z"
       id="path150484"
       sodipodi:nodetypes="csccssssc" />
    <path
       style="fill:#3a3a3a;fill-opacity:1;stroke:none;stroke-width:0.264583px;stroke-linecap:butt;stroke-linejoin:miter;stroke-opacity:1"
       d="m 219.13738,274.09424 c -0.28763,-0.59175 -0.94526,-0.90091 -1.46245,-0.49421 -4.03524,3.17314 -9.94499,0.46431 -13.75375,-2.27962 -3.5979,6.02725 -10.53853,3.06807 -11.54923,5.4601 0.29784,1.53472 -0.84949,1.32179 2.57412,3.84495 0.61115,0.45041 4.91257,0.30749 5.89756,0.33559 4.35154,0.12424 5.76765,0.16851 9.97873,-0.55352 3.27926,-0.56226 6.23017,0.29578 8.24743,-0.73827 1.65386,-0.84776 0.51419,-4.60579 0.0676,-5.57502 z"
       id="path150486"
       sodipodi:nodetypes="csccssssc" />
    <path
       style="fill:#fafafa;fill-opacity:1;stroke:none;stroke-width:0.264583px;stroke-linecap:butt;stroke-linejoin:miter;stroke-opacity:1"
       d="m 213.63562,124.01277 -3.34786,-7.49866 -10.84526,7.05342 z"
       id="path53241" />
    <g
       id="g163222"
       transform="matrix(-1,0,0,1,305.5394,0)">
      <path
         style="fill:#f5f5f5;fill-opacity:1;stroke:none;stroke-width:0.264583px;stroke-linecap:butt;stroke-linejoin:miter;stroke-opacity:1"
         d="m 95.40949,122.52987 c -5.406988,0 -9.920543,2.15133 -13.460939,5.67784 -0.938995,0.93532 -1.857459,1.96731 -2.779326,3.10124 -5.482379,6.74356 -5.917102,23.66551 -5.307626,32.33503 l 0.978666,13.9211 c 0.306384,4.35819 0.873539,10.81894 3.290331,11.89165 2.416792,1.07271 3.174009,0.1595 4.501597,-1.71046 1.327588,-1.86996 1.423642,-5.65688 1.351943,-9.49956 -0.0717,-3.84268 -0.55382,-15.00125 -0.55382,-15.00125 -0.313556,-4.86304 2.016362,-17.02062 2.809349,-18.32455 0.295358,-0.48566 0.352959,-0.56071 0.59492,-0.3278 1.710441,1.64644 0.18928,15.29249 0.02404,23.36183 -0.165241,8.06934 -0.821985,28.18878 -0.821985,28.18878 l 20.06044,-2.54766 v -70.0285 c 0,0 -7.175235,-1.72663 -10.68759,-1.03769 z"
         id="path163220"
         sodipodi:nodetypes="ssssszzzssszcccs" />
    </g>
    <g
       id="g68550"
       transform="matrix(-1,0,0,1,303.60218,0)">
      <path
         style="fill:#ebebeb;fill-opacity:1;stroke:none;stroke-width:0.264583px;stroke-linecap:butt;stroke-linejoin:miter;stroke-opacity:1"
         d="m 102.11297,193.80239 3.98406,-0.20636 v -70.22675 l -4.1243,-0.024 z"
         id="path68546"
         sodipodi:nodetypes="ccccc" />
    </g>
    <g
       id="g59414"
       transform="translate(95.502995,-5.0516385)">
      <circle
         style="fill:#6d6d6d;fill-opacity:1;stroke:none;stroke-width:0.134884;stroke-linecap:round;stroke-linejoin:round;stroke-miterlimit:4;stroke-dasharray:none;stroke-opacity:1;paint-order:normal"
         id="circle59410"
         cx="104.2234"
         cy="130.31354"
         r="1.040448" />
      <rect
         style="fill:#3d3d3d;fill-opacity:1;stroke:none;stroke-width:0.139449;stroke-linecap:round;stroke-linejoin:round;stroke-miterlimit:4;stroke-dasharray:none;stroke-opacity:1;paint-order:normal"
         id="rect59412"
         width="1.1367261"
         height="1.1367261"
         x="165.30119"
         y="17.935347"
         transform="rotate(45)" />
    </g>
    <g
       id="g57358"
       transform="translate(95.502995,5.9801543)">
      <circle
         style="fill:#6d6d6d;fill-opacity:1;stroke:none;stroke-width:0.134884;stroke-linecap:round;stroke-linejoin:round;stroke-miterlimit:4;stroke-dasharray:none;stroke-opacity:1;paint-order:normal"
         id="circle57004"
         cx="104.2234"
         cy="130.31354"
         r="1.040448" />
      <rect
         style="fill:#3d3d3d;fill-opacity:1;stroke:none;stroke-width:0.139449;stroke-linecap:round;stroke-linejoin:round;stroke-miterlimit:4;stroke-dasharray:none;stroke-opacity:1;paint-order:normal"
         id="rect57006"
         width="1.1367261"
         height="1.1367261"
         x="165.30119"
         y="17.935347"
         transform="rotate(45)" />
    </g>
    <g
       id="g57530"
       transform="translate(95.502995,19.868065)">
      <circle
         style="fill:#6d6d6d;fill-opacity:1;stroke:none;stroke-width:0.134884;stroke-linecap:round;stroke-linejoin:round;stroke-miterlimit:4;stroke-dasharray:none;stroke-opacity:1;paint-order:normal"
         id="circle57526"
         cx="104.2234"
         cy="130.31354"
         r="1.040448" />
      <rect
         style="fill:#3d3d3d;fill-opacity:1;stroke:none;stroke-width:0.139449;stroke-linecap:round;stroke-linejoin:round;stroke-miterlimit:4;stroke-dasharray:none;stroke-opacity:1;paint-order:normal"
         id="rect57528"
         width="1.1367261"
         height="1.1367261"
         x="165.30119"
         y="17.935347"
         transform="rotate(45)" />
    </g>
    <g
       id="g57542"
       transform="translate(95.502995,33.756066)">
      <circle
         style="fill:#6d6d6d;fill-opacity:1;stroke:none;stroke-width:0.134884;stroke-linecap:round;stroke-linejoin:round;stroke-miterlimit:4;stroke-dasharray:none;stroke-opacity:1;paint-order:normal"
         id="circle57538"
         cx="104.2234"
         cy="130.31354"
         r="1.040448" />
      <rect
         style="fill:#3d3d3d;fill-opacity:1;stroke:none;stroke-width:0.139449;stroke-linecap:round;stroke-linejoin:round;stroke-miterlimit:4;stroke-dasharray:none;stroke-opacity:1;paint-order:normal"
         id="rect57540"
         width="1.1367261"
         height="1.1367261"
         x="165.30119"
         y="17.935347"
         transform="rotate(45)" />
    </g>
    <g
       id="g57554"
       transform="translate(95.502995,47.644066)">
      <circle
         style="fill:#6d6d6d;fill-opacity:1;stroke:none;stroke-width:0.134884;stroke-linecap:round;stroke-linejoin:round;stroke-miterlimit:4;stroke-dasharray:none;stroke-opacity:1;paint-order:normal"
         id="circle57550"
         cx="104.2234"
         cy="130.31354"
         r="1.040448" />
      <rect
         style="fill:#3d3d3d;fill-opacity:1;stroke:none;stroke-width:0.139449;stroke-linecap:round;stroke-linejoin:round;stroke-miterlimit:4;stroke-dasharray:none;stroke-opacity:1;paint-order:normal"
         id="rect57552"
         width="1.1367261"
         height="1.1367261"
         x="165.30119"
         y="17.935347"
         transform="rotate(45)" />
    </g>
    <path
       style="fill:#1f1f1f;fill-opacity:1;stroke:none;stroke-width:0.264583px;stroke-linecap:butt;stroke-linejoin:miter;stroke-opacity:1"
       d="m 179.46672,185.68449 c -3.89388,-0.37866 -2.12902,37.05081 -1.69702,51.34666 0.432,14.29585 3.21392,34.28926 3.21392,34.28926 0,0 12.67984,5.90763 14.49533,2.36133 0.88723,-1.73308 -0.69766,-21.92475 2.01562,-34.83775 1.59582,-7.59478 1.16061,-16.27755 2.82323,-22.65829 1.29498,-4.9698 4.91804,-8.53626 4.91804,-9.14864 0,-2.7354 -2.37397,-19.15526 -2.37397,-19.15526 -8.01331,-0.22828 -19.50126,-1.81865 -23.39515,-2.19731 z"
       id="path79558"
       sodipodi:nodetypes="zzcsssscz" />
    <path
       style="fill:#1f1f1f;fill-opacity:1;stroke:none;stroke-width:0.264583px;stroke-linecap:butt;stroke-linejoin:miter;stroke-opacity:1"
       d="m 196.64154,188.10347 c -3.89388,-0.37866 3.63372,34.63183 4.06572,48.92768 0.432,14.29585 3.21392,34.28926 3.21392,34.28926 0,0 12.67984,5.90763 14.49533,2.36133 0.88723,-1.73308 -0.21572,-21.5722 0.42224,-34.75174 l 1.07188,-22.14373 c 1.95896,-9.94459 -1.04137,-20.74322 -0.33153,-30.8806 -8.01331,-0.22828 -19.04367,2.57646 -22.93756,2.1978 z"
       id="path165516"
       sodipodi:nodetypes="zzcssccz" />
    <path
       style="fill:#535353;fill-opacity:1;stroke:none;stroke-width:0.264583px;stroke-linecap:butt;stroke-linejoin:miter;stroke-opacity:1"
       d="m 176.68136,186.69713 c 15.09938,2.53797 27.67383,5.02199 42.89774,0.32211 v 3.74256 c -14.1514,3.62191 -27.33213,1.59748 -43.10793,-0.32211 z"
       id="path139634"
       sodipodi:nodetypes="ccccc" />
    <g
       id="g158333"
       transform="rotate(-19.798853,292.28512,660.43251)">
      <path
         style="fill:none;stroke:#000000;stroke-width:2;stroke-linecap:round;stroke-linejoin:miter;stroke-miterlimit:4;stroke-dasharray:none;stroke-opacity:1"
         d="m 327.48512,188.02061 18.23984,-4.2827 c 12.5773,-3.07303 12.53868,9.36391 2.25959,9.62353"
         id="path155195"
         sodipodi:nodetypes="ccc" />
      <path
         style="fill:#535353;fill-opacity:1;stroke:none;stroke-width:0.383155px;stroke-linecap:butt;stroke-linejoin:round;stroke-opacity:1"
         d="m 328.27361,181.09224 -11.44044,9.43691 14.83153,4.47406 z"
         id="path156354" />
      <path
         style="fill:#535353;fill-opacity:1;stroke:none;stroke-width:0.383155px;stroke-linecap:butt;stroke-linejoin:miter;stroke-opacity:1"
         d="m 319.99607,189.78643 c -17.62537,-5.31686 -32.79594,2.73439 -51.28367,12.65309 21.55763,0.67233 37.80981,0.006 51.28367,-12.65309 z"
         id="path156811"
         sodipodi:nodetypes="ccc" />
    </g>
    <path
       style="fill:#d2d2d2;fill-opacity:1;stroke:none;stroke-width:0.296432px;stroke-linecap:butt;stroke-linejoin:miter;stroke-opacity:1"
       d="m 172.00994,187.31378 3.31122,8.42435 c 0,0 2.02149,3.50952 2.4227,3.53233 0.40119,0.0228 5.7616,-3.00276 5.90197,-3.63746 0.14037,-0.63469 -2.98879,-5.38653 -3.18398,-5.31618 -0.19521,0.0703 2.5264,3.17315 2.95652,1.65725 0.1344,-0.47366 -2.06985,-4.03904 -3.10482,-3.95723 -1.03498,0.0818 -3.49735,-1.24031 -4.10326,-2.60624 -0.60583,-1.36595 -4.20035,1.90318 -4.20035,1.90318 z"
       id="path77514"
       sodipodi:nodetypes="ccsscsssc" />
    <path
       style="fill:#d2d2d2;fill-opacity:1;stroke:none;stroke-width:0.296432px;stroke-linecap:butt;stroke-linejoin:miter;stroke-opacity:1"
       d="m 228.293,186.97818 0.56109,9.03433 c 0,0 -0.40319,3.2345 -0.75711,3.42481 -0.097,0.0522 -0.19145,2.41598 -0.88056,2.9227 -1.25412,0.92226 -4.45797,0.9917 -5.65894,0.75944 -0.54548,-0.10558 -0.2022,-3.56563 -0.29187,-3.68257 -0.39555,-0.51583 0.43112,-6.14505 0.63775,-6.16382 0.13351,-0.0122 -0.52394,3.89422 -1.12643,4.74196 -0.32993,0.46419 -0.92477,0.60771 -1.28947,0.18598 -0.32204,-0.37241 0.54593,-6.85265 1.51845,-7.2161 0.9725,-0.36345 2.70438,-2.46153 2.67597,-3.95554 -0.0285,-1.49399 4.61111,-0.0512 4.61111,-0.0512 z"
       id="path78487"
       sodipodi:nodetypes="ccsssscssssc" />
    <text
       xml:space="preserve"
       transform="matrix(0.25556787,-0.0684792,0.0684792,0.25556787,-21.835783,84.362393)"
       id="text169271"
       style="font-style:normal;font-variant:normal;font-weight:normal;font-stretch:normal;font-size:96px;line-height:1.25;font-family:Roboto;-inkscape-font-specification:Roboto;white-space:pre;shape-inside:url(#rect169273);fill:#000000;fill-opacity:1;stroke:none"
       x="167.29688"
       y="0"><tspan
         x="104.55664"
         y="227.93022"
         id="tspan1180"><tspan
           style="font-weight:900;-inkscape-font-specification:'Roboto Heavy';text-align:center;text-anchor:middle;fill:#ffffff"
           id="tspan1178">         Up</tspan></tspan></text>
  </g>
</svg>
